<svg width="150" height="69" viewBox="0 0 150 69" fill="none" xmlns="http://www.w3.org/2000/svg">
<g clip-path="url(#clip0_38_2)">
<rect width="68.0723" height="8.0189" fill="#141414"/>
<rect x="44.8476" y="15.2359" width="23.2247" height="8.0189" fill="#BFFD4D"/>
<rect y="15.2359" width="23.2247" height="8.0189" fill="#141414"/>
<rect x="30.0319" y="68.1606" width="68.1607" height="8.0085" transform="rotate(-90 30.0319 68.1606)" fill="#141414"/>
<rect x="15.2162" y="68.1606" width="52.9247" height="8.0085" transform="rotate(-90 15.2162 68.1606)" fill="#141414"/>
<rect x="44.8476" y="68.1606" width="52.9247" height="8.0085" transform="rotate(-90 44.8476 68.1606)" fill="#BFFD4D"/>
<path d="M69.7537 40.5761H66.083V50.92H64.1204V40.5761H60.4743V38.948H69.7537V40.5761ZM77.5385 41.8588C77.6973 41.8588 77.8561 41.8643 78.0148 41.8752C78.1736 41.8862 78.3241 41.9026 78.4665 41.9246C78.6143 41.9465 78.7484 41.9712 78.8689 41.9986C78.9893 42.0205 79.0906 42.0479 79.1727 42.0808L78.8935 44.0131C78.2913 43.876 77.6973 43.8075 77.1115 43.8075C76.4546 43.8075 75.9235 43.9445 75.5184 44.2186C75.1188 44.4927 74.8232 44.8737 74.6316 45.3616V50.92H72.6689V42.0232H74.5084L74.5987 43.4129C74.96 42.9304 75.387 42.5522 75.8797 42.2781C76.3779 41.9986 76.9308 41.8588 77.5385 41.8588ZM87.2039 50.92C87.1491 50.8104 87.1026 50.6815 87.0643 50.5335C87.0314 50.3855 87.0013 50.2266 86.9739 50.0566C86.8371 50.1991 86.6811 50.3334 86.5059 50.4595C86.3361 50.5801 86.1445 50.687 85.931 50.7802C85.723 50.8734 85.4958 50.9474 85.2495 51.0022C85.0086 51.057 84.7485 51.0845 84.4693 51.0845C83.9985 51.0845 83.5715 51.0187 83.1883 50.8871C82.8105 50.7501 82.4848 50.5637 82.2111 50.328C81.9428 50.0868 81.7348 49.8045 81.587 49.481C81.4391 49.1576 81.3653 48.8068 81.3653 48.4286C81.3653 47.4747 81.7184 46.7457 82.4246 46.2414C83.1363 45.7371 84.1546 45.4849 85.4794 45.4849H86.9164V44.9011C86.9164 44.4297 86.7577 44.0569 86.4402 43.7828C86.1226 43.5033 85.6737 43.3635 85.0934 43.3635C84.8307 43.3635 84.6007 43.3964 84.4037 43.4622C84.2066 43.5225 84.0423 43.6074 83.9109 43.7171C83.7796 43.8267 83.681 43.9555 83.6153 44.1035C83.5496 44.2516 83.5168 44.4105 83.5168 44.5804H81.5541C81.5541 44.2351 81.6335 43.9007 81.7923 43.5773C81.9565 43.2484 82.1947 42.9579 82.5067 42.7057C82.8187 42.4481 83.1992 42.2425 83.6481 42.089C84.1025 41.9355 84.6199 41.8588 85.2002 41.8588C85.7257 41.8588 86.213 41.9246 86.6619 42.0561C87.1108 42.1822 87.4995 42.374 87.828 42.6317C88.1564 42.8838 88.4138 43.2018 88.5999 43.5855C88.786 43.9638 88.8791 44.4078 88.8791 44.9176V48.8808C88.8791 49.27 88.9065 49.6263 88.9612 49.9497C89.0214 50.2677 89.1063 50.5445 89.2158 50.7802V50.92H87.2039ZM84.8389 49.4975C85.0907 49.4975 85.3261 49.4674 85.5451 49.4071C85.7695 49.3413 85.9694 49.259 86.1445 49.1604C86.3252 49.0562 86.4785 48.9384 86.6044 48.8068C86.7358 48.6753 86.8398 48.5409 86.9164 48.4039V46.7347H85.6683C84.869 46.7347 84.2777 46.8635 83.8945 47.1212C83.5168 47.3788 83.3279 47.7461 83.3279 48.223C83.3279 48.4039 83.358 48.5738 83.4182 48.7328C83.4784 48.8863 83.5688 49.0206 83.6892 49.1357C83.8151 49.2453 83.9712 49.333 84.1573 49.3988C84.3489 49.4646 84.5761 49.4975 84.8389 49.4975ZM93.412 42.0232L93.5352 43.2566C93.8582 42.8126 94.2469 42.47 94.7013 42.2288C95.1612 41.9821 95.6703 41.8588 96.2287 41.8588C96.6831 41.8588 97.0964 41.9246 97.4687 42.0561C97.8464 42.1877 98.1694 42.3933 98.4377 42.6728C98.7114 42.9524 98.9222 43.3142 99.07 43.7582C99.2233 44.2022 99.2999 44.7367 99.2999 45.3616V50.92H97.3373V45.3945C97.3373 45.0272 97.2935 44.7202 97.2059 44.4736C97.1238 44.2269 97.0033 44.0295 96.8446 43.8815C96.6913 43.7335 96.5024 43.6294 96.278 43.5691C96.0535 43.5033 95.799 43.4704 95.5142 43.4704C95.0818 43.4704 94.704 43.5663 94.381 43.7582C94.0635 43.95 93.8062 44.2104 93.6091 44.5393V50.92H91.6383V42.0232H93.412ZM107.528 48.5108C107.528 48.3628 107.498 48.2285 107.438 48.1079C107.378 47.9818 107.268 47.8694 107.109 47.7708C106.956 47.6666 106.742 47.5707 106.469 47.483C106.201 47.3953 105.856 47.3103 105.434 47.2281C104.909 47.1185 104.432 46.9869 104.005 46.8334C103.584 46.6799 103.22 46.4963 102.913 46.2825C102.612 46.0687 102.379 45.8221 102.215 45.5425C102.051 45.2574 101.969 44.9285 101.969 44.5558C101.969 44.194 102.054 43.8514 102.223 43.528C102.393 43.1991 102.634 42.9113 102.946 42.6646C103.264 42.4179 103.647 42.2233 104.096 42.0808C104.55 41.9328 105.056 41.8588 105.615 41.8588C106.206 41.8588 106.734 41.9328 107.2 42.0808C107.671 42.2288 108.067 42.4316 108.39 42.6893C108.713 42.9414 108.96 43.2402 109.129 43.5855C109.305 43.9309 109.392 44.3009 109.392 44.6956H107.43C107.43 44.5201 107.391 44.353 107.315 44.194C107.238 44.0295 107.123 43.8842 106.97 43.7582C106.817 43.6321 106.625 43.5334 106.395 43.4622C106.171 43.3854 105.91 43.3471 105.615 43.3471C105.319 43.3471 105.062 43.3799 104.843 43.4457C104.629 43.506 104.452 43.5883 104.309 43.6924C104.167 43.7911 104.06 43.9089 103.989 44.046C103.923 44.183 103.89 44.3255 103.89 44.4736C103.89 44.6215 103.915 44.7559 103.964 44.8765C104.019 44.997 104.118 45.1067 104.26 45.2054C104.402 45.304 104.599 45.3945 104.851 45.4767C105.103 45.5534 105.429 45.6274 105.828 45.6987C106.387 45.7974 106.888 45.9207 107.331 46.0687C107.78 46.2167 108.16 46.3976 108.473 46.6114C108.79 46.8252 109.034 47.0801 109.203 47.3761C109.373 47.6666 109.458 48.0092 109.458 48.4039C109.458 48.7986 109.368 49.1604 109.187 49.4893C109.006 49.8182 108.749 50.1032 108.415 50.3444C108.081 50.5801 107.679 50.7638 107.208 50.8953C106.742 51.0269 106.22 51.0927 105.639 51.0927C104.993 51.0927 104.424 51.0077 103.932 50.8378C103.439 50.6623 103.025 50.4348 102.691 50.1553C102.357 49.8757 102.103 49.5578 101.928 49.2015C101.758 48.8452 101.673 48.4834 101.673 48.1161H103.578C103.595 48.3902 103.666 48.6232 103.792 48.815C103.918 49.0069 104.079 49.1631 104.276 49.2837C104.473 49.3988 104.692 49.4838 104.933 49.5386C105.174 49.5879 105.418 49.6126 105.664 49.6126C106.272 49.6126 106.734 49.5112 107.052 49.3084C107.37 49.1001 107.528 48.8342 107.528 48.5108ZM112.201 38.2902H117.005V49.292H119.715V50.92H112.201V49.292H115.026V39.9265H112.201V38.2902ZM127.606 50.92C127.551 50.8104 127.505 50.6815 127.466 50.5335C127.434 50.3855 127.404 50.2266 127.376 50.0566C127.239 50.1991 127.083 50.3334 126.908 50.4595C126.739 50.5801 126.547 50.687 126.333 50.7802C126.125 50.8734 125.898 50.9474 125.652 51.0022C125.411 51.057 125.151 51.0845 124.872 51.0845C124.401 51.0845 123.974 51.0187 123.59 50.8871C123.213 50.7501 122.887 50.5637 122.613 50.328C122.345 50.0868 122.137 49.8045 121.989 49.481C121.841 49.1576 121.768 48.8068 121.768 48.4286C121.768 47.4747 122.121 46.7457 122.827 46.2414C123.539 45.7371 124.557 45.4849 125.882 45.4849H127.319V44.9011C127.319 44.4297 127.16 44.0569 126.843 43.7828C126.525 43.5033 126.076 43.3635 125.496 43.3635C125.233 43.3635 125.003 43.3964 124.806 43.4622C124.609 43.5225 124.444 43.6074 124.313 43.7171C124.182 43.8267 124.083 43.9555 124.018 44.1035C123.952 44.2516 123.919 44.4105 123.919 44.5804H121.956C121.956 44.2351 122.036 43.9007 122.194 43.5773C122.359 43.2484 122.597 42.9579 122.909 42.7057C123.221 42.4481 123.602 42.2425 124.05 42.089C124.505 41.9355 125.022 41.8588 125.603 41.8588C126.128 41.8588 126.615 41.9246 127.064 42.0561C127.513 42.1822 127.902 42.374 128.23 42.6317C128.559 42.8838 128.816 43.2018 129.002 43.5855C129.188 43.9638 129.281 44.4078 129.281 44.9176V48.8808C129.281 49.27 129.309 49.6263 129.363 49.9497C129.424 50.2677 129.509 50.5445 129.618 50.7802V50.92H127.606ZM125.241 49.4975C125.493 49.4975 125.728 49.4674 125.947 49.4071C126.172 49.3413 126.372 49.259 126.547 49.1604C126.727 49.0562 126.881 48.9384 127.007 48.8068C127.138 48.6753 127.242 48.5409 127.319 48.4039V46.7347H126.071C125.271 46.7347 124.68 46.8635 124.297 47.1212C123.919 47.3788 123.73 47.7461 123.73 48.223C123.73 48.4039 123.76 48.5738 123.821 48.7328C123.881 48.8863 123.971 49.0206 124.091 49.1357C124.217 49.2453 124.374 49.333 124.559 49.3988C124.751 49.4646 124.978 49.4975 125.241 49.4975ZM135.974 39.8689V42.0232H139.333V43.4868H135.974V47.7543C135.974 48.0887 136.012 48.3655 136.089 48.5848C136.171 48.8041 136.283 48.9795 136.426 49.111C136.568 49.2426 136.735 49.3358 136.927 49.3906C137.118 49.4399 137.329 49.4646 137.559 49.4646C137.729 49.4646 137.904 49.4564 138.085 49.4399C138.271 49.418 138.449 49.3961 138.618 49.3741C138.793 49.3468 138.952 49.3193 139.094 49.292C139.242 49.259 139.366 49.2289 139.464 49.2015L139.686 50.5582C139.543 50.6404 139.371 50.7172 139.169 50.7884C138.971 50.8542 138.755 50.909 138.52 50.9529C138.284 50.9967 138.038 51.0296 137.781 51.0515C137.529 51.079 137.28 51.0927 137.033 51.0927C136.59 51.0927 136.182 51.0324 135.81 50.9118C135.443 50.7857 135.125 50.5938 134.857 50.3362C134.594 50.0731 134.386 49.7387 134.233 49.333C134.085 48.9219 134.011 48.4313 134.011 47.8612V43.4868H131.844V42.0232H134.011V39.8689H135.974ZM146.28 51.0845C145.623 51.0845 145.024 50.9748 144.481 50.7555C143.94 50.5363 143.474 50.2348 143.085 49.8511C142.702 49.4674 142.404 49.0151 142.191 48.4944C141.977 47.9681 141.87 47.4008 141.87 46.7923V46.4552C141.87 45.748 141.982 45.1121 142.207 44.5475C142.437 43.9829 142.741 43.5005 143.118 43.1004C143.501 42.7002 143.945 42.3933 144.449 42.1795C144.958 41.9657 145.492 41.8588 146.05 41.8588C146.696 41.8588 147.265 41.9684 147.758 42.1877C148.251 42.4015 148.661 42.7057 148.99 43.1004C149.324 43.4896 149.576 43.9528 149.745 44.49C149.915 45.0272 150 45.6165 150 46.2578V47.0883H143.841C143.874 47.4337 143.959 47.7543 144.095 48.0503C144.232 48.3464 144.41 48.604 144.629 48.8232C144.854 49.037 145.114 49.207 145.41 49.333C145.711 49.4537 146.039 49.514 146.395 49.514C146.893 49.514 147.35 49.4153 147.766 49.2179C148.188 49.0206 148.53 48.7492 148.793 48.4039L149.86 49.4071C149.718 49.6208 149.534 49.8291 149.31 50.032C149.085 50.2293 148.823 50.4075 148.522 50.5664C148.221 50.7199 147.881 50.8432 147.503 50.9364C147.131 51.0351 146.723 51.0845 146.28 51.0845ZM146.042 43.4457C145.768 43.4457 145.513 43.495 145.278 43.5937C145.043 43.6924 144.832 43.8377 144.646 44.0295C144.46 44.2159 144.301 44.4461 144.169 44.7202C144.044 44.9888 143.953 45.2958 143.898 45.6411H148.062V45.4931C148.046 45.23 147.993 44.9779 147.906 44.7367C147.824 44.49 147.7 44.2707 147.536 44.0789C147.372 43.887 147.164 43.7335 146.912 43.6184C146.666 43.5033 146.376 43.4457 146.042 43.4457ZM69.7537 57.8167H66.083V68.1606H64.1204V57.8167H60.4743V56.1886H69.7537V57.8167ZM77.5385 59.0994C77.6973 59.0994 77.8561 59.1049 78.0148 59.1159C78.1736 59.1269 78.3241 59.1433 78.4665 59.1652C78.6143 59.1871 78.7484 59.2118 78.8689 59.2392C78.9893 59.2611 79.0906 59.2886 79.1727 59.3214L78.8935 61.2537C78.2913 61.1167 77.6973 61.0481 77.1115 61.0481C76.4546 61.0481 75.9235 61.1852 75.5184 61.4593C75.1188 61.7334 74.8232 62.1143 74.6316 62.6022V68.1606H72.6689V59.2639H74.5084L74.5987 60.6535C74.96 60.1711 75.387 59.7929 75.8797 59.5188C76.3779 59.2392 76.9308 59.0994 77.5385 59.0994ZM81.9647 59.2639H86.7029V66.5326H89.339V68.1606H81.9647V66.5326H84.7239V60.9002H81.9647V59.2639ZM84.5597 56.9616C84.5597 56.6546 84.6582 56.4024 84.8553 56.2051C85.0524 56.0023 85.3288 55.9009 85.6847 55.9009C86.046 55.9009 86.3252 56.0023 86.5223 56.2051C86.7248 56.4024 86.8261 56.6546 86.8261 56.9616C86.8261 57.2686 86.7248 57.5234 86.5223 57.7263C86.3252 57.9236 86.046 58.0223 85.6847 58.0223C85.3288 58.0223 85.0524 57.9236 84.8553 57.7263C84.6582 57.5234 84.5597 57.2686 84.5597 56.9616ZM99.4477 63.8109C99.4477 64.4687 99.3711 65.0744 99.2178 65.6281C99.07 66.1763 98.8483 66.6504 98.5526 67.0506C98.257 67.4508 97.893 67.7632 97.4605 67.9879C97.028 68.2127 96.5298 68.3251 95.9659 68.3251C95.4239 68.3251 94.9531 68.2291 94.5535 68.0373C94.1593 67.8454 93.8199 67.5686 93.5352 67.2068L93.4449 68.1606H91.6629V55.5309H93.6255V60.1108C93.9047 59.7874 94.2332 59.5379 94.611 59.3625C94.9887 59.1871 95.4349 59.0994 95.9495 59.0994C96.5188 59.0994 97.0198 59.2118 97.4523 59.4365C97.8902 59.6558 98.257 59.9655 98.5526 60.3657C98.8483 60.7658 99.07 61.2455 99.2178 61.8046C99.3711 62.3583 99.4477 62.9695 99.4477 63.6382V63.8109ZM97.4851 63.6382C97.4851 63.2436 97.4495 62.8708 97.3783 62.52C97.3126 62.1637 97.2004 61.8512 97.0417 61.5826C96.8884 61.314 96.6803 61.103 96.4176 60.9495C96.1548 60.7905 95.8318 60.711 95.4486 60.711C94.9832 60.711 94.6028 60.8179 94.3071 61.0317C94.0115 61.2455 93.7843 61.5251 93.6255 61.8704V65.5459C93.7843 65.8912 94.0115 66.1735 94.3071 66.3928C94.6082 66.6121 94.9942 66.7217 95.465 66.7217C95.8373 66.7217 96.152 66.6477 96.4094 66.4997C96.6667 66.3462 96.8747 66.1379 97.0335 65.8748C97.1922 65.6117 97.3072 65.3047 97.3783 64.9539C97.4495 64.5975 97.4851 64.2166 97.4851 63.8109V63.6382ZM107.438 66.9437C107.137 67.3822 106.77 67.7248 106.338 67.9715C105.91 68.2127 105.431 68.3333 104.901 68.3333C104.44 68.3333 104.019 68.262 103.636 68.1195C103.258 67.977 102.932 67.7522 102.659 67.4453C102.39 67.1328 102.18 66.7381 102.026 66.2612C101.879 65.7789 101.804 65.2005 101.804 64.5263V59.2639H103.767V64.5427C103.767 64.9703 103.797 65.3239 103.857 65.6034C103.923 65.883 104.022 66.105 104.153 66.2694C104.285 66.4339 104.449 66.5518 104.646 66.623C104.843 66.6888 105.078 66.7217 105.352 66.7217C105.878 66.7217 106.302 66.6203 106.625 66.4174C106.948 66.2091 107.191 65.9296 107.356 65.5787V59.2639H109.326V68.1606H107.553L107.438 66.9437ZM113.613 59.2639L113.736 60.4972C114.059 60.0532 114.448 59.7106 114.902 59.4694C115.362 59.2228 115.871 59.0994 116.43 59.0994C116.884 59.0994 117.298 59.1652 117.67 59.2968C118.048 59.4283 118.37 59.6339 118.639 59.9135C118.913 60.193 119.123 60.5548 119.271 60.9988C119.424 61.4428 119.501 61.9773 119.501 62.6022V68.1606H117.538V62.6351C117.538 62.2678 117.495 61.9609 117.407 61.7142C117.325 61.4675 117.204 61.2702 117.046 61.1222C116.892 60.9742 116.703 60.87 116.479 60.8097C116.255 60.7439 116 60.711 115.715 60.711C115.283 60.711 114.905 60.807 114.582 60.9988C114.264 61.1907 114.007 61.4511 113.81 61.7799V68.1606H111.839V59.2639H113.613ZM126.079 68.3251C125.422 68.3251 124.822 68.2154 124.28 67.9962C123.739 67.7769 123.273 67.4754 122.884 67.0917C122.501 66.708 122.203 66.2557 121.989 65.735C121.776 65.2087 121.669 64.6414 121.669 64.0329V63.6958C121.669 62.9887 121.781 62.3528 122.005 61.7882C122.236 61.2236 122.539 60.7412 122.917 60.341C123.3 59.9409 123.744 59.6339 124.247 59.4201C124.757 59.2063 125.291 59.0994 125.849 59.0994C126.495 59.0994 127.064 59.209 127.557 59.4283C128.049 59.6421 128.46 59.9463 128.789 60.341C129.123 60.7302 129.375 61.1934 129.544 61.7306C129.714 62.2678 129.799 62.8571 129.799 63.4985V64.329H123.64C123.673 64.6743 123.757 64.995 123.894 65.291C124.031 65.587 124.209 65.8446 124.428 66.0639C124.653 66.2777 124.913 66.4476 125.208 66.5737C125.509 66.6943 125.838 66.7546 126.194 66.7546C126.692 66.7546 127.149 66.6559 127.565 66.4586C127.987 66.2612 128.329 65.9899 128.592 65.6445L129.659 66.6477C129.517 66.8615 129.333 67.0698 129.109 67.2726C128.884 67.4699 128.622 67.6481 128.321 67.8071C128.019 67.9606 127.68 68.0839 127.302 68.1771C126.93 68.2757 126.522 68.3251 126.079 68.3251ZM125.841 60.6864C125.567 60.6864 125.312 60.7357 125.077 60.8344C124.841 60.933 124.631 61.0783 124.444 61.2702C124.258 61.4565 124.1 61.6868 123.968 61.9609C123.842 62.2294 123.752 62.5364 123.697 62.8818H127.86V62.7338C127.844 62.4707 127.792 62.2185 127.705 61.9773C127.623 61.7306 127.499 61.5114 127.335 61.3195C127.171 61.1276 126.963 60.9742 126.711 60.8591C126.465 60.7439 126.175 60.6864 125.841 60.6864Z" fill="#141414"/>
</g>
<defs>
<clipPath id="clip0_38_2">
<rect width="150" height="68.3333" fill="white"/>
</clipPath>
</defs>
</svg>
